<?xml version="1.0" encoding="UTF-8"?>
<svg width="1024px" height="1024px" viewBox="0 0 1024 1024" version="1.1" xmlns="http://www.w3.org/2000/svg" xmlns:xlink="http://www.w3.org/1999/xlink">
    <!-- Generator: Sketch 55.2 (78181) - https://sketchapp.com -->
    <title>Group 5</title>
    <desc>Created with Sketch.</desc>
    <g id="Page-1" stroke="none" stroke-width="1" fill="none" fill-rule="evenodd">
        <g id="Group-5">
            <circle id="Oval" fill="#C5318A" cx="512" cy="512" r="512"></circle>
            <g id="Group-2" transform="translate(61.000000, 235.000000)" fill-rule="nonzero">
                <path d="M722,427.012315 C745.625974,427.370706 765.440599,435.55171 781.444444,451.555556 C797.814897,467.926008 806,487.86408 806,511.37037 C806,534.876661 797.605022,555.024607 780.814815,571.814815 C764.024607,588.605022 744.086535,597 721,597 C697.913465,597 677.975393,588.605022 661.185185,571.814815 C644.545081,555.174711 636.150772,535.236636 636.002013,512 L571.956954,512 L571.956954,329.877358 C571.956954,288.07122 557.129839,267.168464 527.475166,267.168464 C510.656097,267.168464 497.046134,273.061262 486.644868,284.847035 C476.243601,296.632808 471.043046,315.200682 471.043046,340.551213 L471.043046,512 L321,512 L321,472.674262 L239.463035,472.674262 L239.463035,424.40574 C222.071778,461.054245 187.512747,479.378223 135.784905,479.378223 C106.799477,479.378223 82.1622322,474.350303 61.8724322,464.29431 C41.5826323,454.238318 26.1982895,440.607066 15.7189422,423.400146 C5.23959502,406.193225 0,386.863663 0,365.410879 C0,329.209306 13.8236124,301.723339 41.4712519,282.952154 C69.1188914,264.180968 111.035652,254.795516 167.22279,254.795516 L228.091885,254.795516 C223.186659,226.191804 200.221625,211.890162 159.196096,211.890162 C142.696698,211.890162 125.974586,214.459989 109.029259,219.599718 C92.0839315,224.739447 77.5914347,231.778537 65.5513336,240.717197 L17.3911701,140.828171 C38.3498646,127.867114 63.6559937,117.699541 93.3103167,110.325147 C122.96464,102.950752 152.507037,99.2636103 181.938395,99.2636103 C241.210138,99.2636103 287.563621,111.54375 321,136.104369 L321,17 L471.043046,17 L471.043046,176.440701 C496.694042,154.347873 527.588296,142.416905 563.726604,140.647514 C561.950115,132.484718 561,123.937607 561,114.8254 C561,52.5344223 613.834094,0 722,0 C830.165906,0 883,52.5344223 883,114.8254 C883,177.116377 838.600363,213 789.330414,280.226729 C756.483781,325.044548 734.04031,373.635639 722,426 L722,427.012315 Z M563.726604,140.647514 C574.094181,188.285532 612.607069,222.834231 654.669586,280.226729 C687.516219,325.044548 709.95969,373.635639 722,426 L722,303.859838 C722,249.156061 708.390037,208.240028 681.169702,181.110512 C653.949367,153.980996 617.988082,140.416442 573.284768,140.416442 C570.058964,140.416442 566.872909,140.493466 563.726604,140.647514 Z M180.733353,388.604585 C191.439499,388.604585 201.030277,385.668129 209.505976,379.795129 C217.981674,373.922129 224.226832,365.112762 228.241637,353.366762 L228.241637,327.616046 L190.770314,327.616046 C159.990145,327.616046 144.600292,338.006582 144.600292,358.787966 C144.600292,367.371581 147.834391,374.486839 154.302688,380.133954 C160.770984,385.781069 169.581118,388.604585 180.733353,388.604585 Z M321,472.674262 L379.930179,472.674262 L379.930179,275.577796 C379.930179,215.688774 362.985105,171.33134 329.09445,142.504162 C326.486104,140.285519 323.787954,138.152255 321,136.104369 L321,472.674262 Z M722,427.012315 C721.45879,427.004105 720.91558,427 720.37037,427 C697.70359,427 677.975393,435.185103 661.185185,451.555556 C644.394978,467.926008 636,487.86408 636,511.37037 C636,511.580515 636.000671,511.790392 636.002013,512 L722,512 L722,427.012315 Z" id="Combined-Shape" fill="#FFFFFF"></path>
                <path d="M563.726604,140.647514 C566.872909,140.493466 570.058964,140.416442 573.284768,140.416442 C617.988082,140.416442 653.949367,153.980996 681.169702,181.110512 C708.390037,208.240028 722,249.156061 722,303.859838 L722,426 C709.95969,373.635639 687.516219,325.044548 654.669586,280.226729 C612.607069,222.834231 574.094181,188.285532 563.726604,140.647514 Z M722,427.012315 L722,512 L636.002004,512 C636.000671,511.790392 636,511.580515 636,511.37037 C636,487.86408 644.394978,467.926008 661.185185,451.555556 C677.975393,435.185103 697.70359,427 720.37037,427 C720.91558,427 721.45879,427.004105 722,427.012315 Z M321,136.104369 C323.787954,138.152255 326.486104,140.285519 329.09445,142.504162 C362.985105,171.33134 379.930179,215.688774 379.930179,275.577796 L379.930179,472.674262 L321,472.674262 L321,136.104369 Z" id="Combined-Shape" fill="#72D463"></path>
            </g>
        </g>
    </g>
</svg>