<?xml version="1.0" encoding="UTF-8"?>
<svg width="571px" height="275px" viewBox="0 0 571 275" version="1.1" xmlns="http://www.w3.org/2000/svg" xmlns:xlink="http://www.w3.org/1999/xlink">
    <!-- Generator: Sketch 55.2 (78181) - https://sketchapp.com -->
    <title>ah!</title>
    <desc>Created with Sketch.</desc>
    <g id="Page-1" stroke="none" stroke-width="1" fill="none" fill-rule="evenodd">
        <path d="M96.244898,70 C129.306288,70 154.530525,77.5043892 171.918367,92.5133929 C189.306209,107.522396 198,130.523655 198,161.517857 L198,271.705357 L132.979592,271.705357 L132.979592,246.080357 C122.938725,265.360215 103.347084,275 74.2040816,275 C58.7754331,275 45.4286278,272.315503 34.1632653,266.946429 C22.8979029,261.577354 14.3877839,254.31701 8.63265306,245.165179 C2.87752224,236.013347 0,225.580416 0,213.866071 C0,195.074311 7.22441755,180.492611 21.6734694,170.120536 C36.1225212,159.74846 58.4080127,154.5625 88.5306122,154.5625 L128.204082,154.5625 C126.979586,133.5743 112.898094,123.080357 85.9591837,123.080357 C76.4081155,123.080357 66.7347429,124.60564 56.9387755,127.65625 C47.1428082,130.70686 38.8163608,134.91664 31.9591837,140.285714 L8.44897959,93.0625 C19.4694429,85.7410348 32.877472,80.0669844 48.6734694,76.0401786 C64.4694667,72.0133727 80.326451,70 96.244898,70 Z M93.8181818,231 C101.818222,231 108.848455,229.060625 114.909091,225.181818 C120.969727,221.303011 125.33332,215.606098 128,208.090909 L128,191 L98.1818182,191 C78.0605055,191 68,197.6666 68,211 C68,217.060636 70.3030073,221.909091 74.9090909,225.545455 C79.5151745,229.181818 85.8181418,231 93.8181818,231 Z M371.086655,70.0161725 C395.70954,70.0161725 415.517256,77.3476356 430.510399,92.0107817 C445.503541,106.673928 453,128.790508 453,158.361186 L453,272 L383.519931,272 L383.519931,169.725067 C383.519931,142.598247 372.671397,129.03504 350.974003,129.03504 C339.028248,129.03504 329.459597,132.945154 322.267764,140.765499 C315.075932,148.585843 311.480069,160.316184 311.480069,175.956873 L311.480069,272 L242,272 L242,0 L311.480069,0 L311.480069,91.6442049 C319.037588,84.5570176 327.935824,79.1806113 338.175043,75.5148248 C348.414263,71.8490383 359.38469,70.0161725 371.086655,70.0161725 Z M488,15 L571,15 L557.044248,178 L501.588496,178 L488,15 Z M529.682819,275 C517.4948,275 507.500773,271.285294 499.700441,263.855769 C491.900108,256.426245 488,247.352618 488,236.634615 C488,225.673022 491.900108,216.660292 499.700441,209.596154 C507.500773,202.532016 517.4948,199 529.682819,199 C541.870839,199 551.803926,202.532016 559.482379,209.596154 C567.160831,216.660292 571,225.673022 571,236.634615 C571,247.352618 567.099892,256.426245 559.299559,263.855769 C551.499227,271.285294 541.627079,275 529.682819,275 Z" id="ah!" fill="#FFFFFF" fill-rule="nonzero"></path>
    </g>
</svg>