<?xml version="1.0" encoding="UTF-8"?>
<svg width="83px" height="261px" viewBox="0 0 83 261" version="1.1" xmlns="http://www.w3.org/2000/svg" xmlns:xlink="http://www.w3.org/1999/xlink">
    <!-- Generator: Sketch 55.2 (78181) - https://sketchapp.com -->
    <title>Group 2</title>
    <desc>Created with Sketch.</desc>
    <g id="Page-1" stroke="none" stroke-width="1" fill="none" fill-rule="evenodd">
        <g id="Group-2" fill="#FFFFFF">
            <polygon id="Path" points="0 0 83 0 69.0442478 158 13.5884956 158"></polygon>
            <path d="M41.6828194,261 C29.4947996,261 19.5007732,257.285294 11.7004405,249.855769 C3.90010784,242.426245 0,233.352618 0,222.634615 C0,211.673022 3.90010784,202.660292 11.7004405,195.596154 C19.5007732,188.532016 29.4947996,185 41.6828194,185 C53.8708392,185 63.8039264,188.532016 71.4823789,195.596154 C79.1608313,202.660292 83,211.673022 83,222.634615 C83,233.352618 79.0998922,242.426245 71.2995595,249.855769 C63.4992268,257.285294 53.6270788,261 41.6828194,261 Z" id="Path"></path>
        </g>
    </g>
</svg>