<?xml version="1.0" encoding="UTF-8"?>
<svg width="808px" height="808px" viewBox="0 0 808 808" version="1.1" xmlns="http://www.w3.org/2000/svg" xmlns:xlink="http://www.w3.org/1999/xlink">
    <!-- Generator: Sketch 55.2 (78181) - https://sketchapp.com -->
    <title>Group 9</title>
    <desc>Created with Sketch.</desc>
    <g id="Page-1" stroke="none" stroke-width="1" fill="none" fill-rule="evenodd">
        <g id="Group-9">
            <circle id="Oval" fill="#C5318A" cx="404" cy="404" r="404"></circle>
            <g id="Group-4" transform="translate(60.000000, 219.000000)" fill="#FFFFFF" fill-rule="nonzero">
                <path d="M570,18 L667,18 L650.690265,206.703846 L585.880531,206.703846 L570,18 Z M618.713656,319 C604.469826,319 592.79006,314.699513 583.674009,306.09841 C574.557957,297.497307 570,286.992838 570,274.584689 C570,261.894537 574.557957,251.460569 583.674009,243.28247 C592.79006,235.104372 604.469826,231.015385 618.713656,231.015385 C632.957487,231.015385 644.566034,235.104372 653.539648,243.28247 C662.513261,251.460569 667,261.894537 667,274.584689 C667,286.992838 662.442043,297.497307 653.325991,306.09841 C644.20994,314.699513 632.67261,319 618.713656,319 Z" id="ah!"></path>
                <path d="M116.366197,78 C157.436825,78 188.809751,87.1004381 210.485915,105.301587 C232.16208,123.502737 243,151.509511 243,189.322751 L243,313.767196 L153.158451,313.767196 L153.158451,283.291005 C142.035156,306.430451 119.931503,318 86.846831,318 C68.3080059,318 52.5502409,314.825429 39.5730634,308.47619 C26.5958858,302.126952 16.7561955,293.520337 10.0536972,282.656085 C3.35119888,271.791833 0,259.587369 0,246.042328 C0,223.185071 8.84146088,205.830747 26.5246479,193.978836 C44.2078349,182.126925 71.017426,176.201058 106.954225,176.201058 L145.885563,176.201058 C142.748224,158.141003 128.05999,149.111111 101.820423,149.111111 C91.2675529,149.111111 80.5722373,150.73367 69.7341549,153.978836 C58.8960726,157.224002 49.6267991,161.668402 41.9260563,167.312169 L11.1232394,104.243386 C24.528236,96.0599238 40.7138136,89.6402349 59.6804577,84.984127 C78.6471019,80.328019 97.5421594,78 116.366197,78 Z M115.509115,261.188406 C122.387919,261.188406 128.550088,259.346234 133.995808,255.661836 C139.441527,251.977437 143.454102,246.450923 146.033654,239.082126 L146.033654,222.927536 L121.957962,222.927536 C102.181401,222.927536 92.2932692,229.44599 92.2932692,242.483092 C92.2932692,247.867982 94.37121,252.331705 98.5271538,255.874396 C102.683098,259.417087 108.343695,261.188406 115.509115,261.188406 Z" id="Combined-Shape"></path>
                <path d="M438.317881,78.2884097 C467.079614,78.2884097 490.2168,86.8929957 507.730132,104.102426 C525.243465,121.311856 534,147.266673 534,181.967655 L534,314 L437.463576,314 L437.463576,198.471698 C437.463576,171.952248 427.923936,158.692722 408.844371,158.692722 C398.023125,158.692722 389.26659,162.43078 382.574503,169.907008 C375.882417,177.383236 372.536424,189.161645 372.536424,205.242588 L372.536424,314 L276,314 L276,0 L372.536424,0 L372.536424,101.140162 C390.476911,85.9055842 412.403844,78.2884097 438.317881,78.2884097 Z" id="Path"></path>
            </g>
        </g>
    </g>
</svg>