<?xml version="1.0" encoding="UTF-8"?>
<svg width="882px" height="808px" viewBox="0 0 882 808" version="1.1" xmlns="http://www.w3.org/2000/svg" xmlns:xlink="http://www.w3.org/1999/xlink">
    <!-- Generator: Sketch 55.2 (78181) - https://sketchapp.com -->
    <title>Group 5</title>
    <desc>Created with Sketch.</desc>
    <g id="Page-1" stroke="none" stroke-width="1" fill="none" fill-rule="evenodd">
        <g id="Group-5">
            <circle id="Oval" fill="#C5318A" cx="441" cy="404" r="404"></circle>
            <path d="M721,406.195443 L721,128 C829.165906,128 882,180.534422 882,242.8254 C882,305.116377 837.600363,341 788.330414,408.226729 C756.372363,451.832116 734.262225,499.009384 722,549.758531 L722,554.032212 C745.18561,554.603646 764.66691,562.778021 780.444444,578.555556 C796.814897,594.926008 805,614.86408 805,638.37037 C805,661.876661 796.605022,682.024607 779.814815,698.814815 C763.024607,715.605022 743.086535,724 720,724 C696.913465,724 676.975393,715.605022 660.185185,698.814815 C643.545081,682.174711 635.150772,662.236636 635.002013,639 L571.884017,639 L571.884017,456.877358 C571.884017,415.07122 557.049695,394.168464 527.380606,394.168464 C510.553362,394.168464 496.936783,400.061262 486.530461,411.847035 C476.124138,423.632808 470.921055,442.200682 470.921055,467.551213 L470.921055,639 L320.805073,639 L320.805073,599.674262 L239.463035,599.674262 L239.463035,551.40574 C222.071778,588.054245 187.512747,606.378223 135.784905,606.378223 C106.799477,606.378223 82.1622322,601.350303 61.8724322,591.29431 C41.5826323,581.238318 26.1982895,567.607066 15.7189422,550.400146 C5.23959502,533.193225 0,513.863663 0,492.410879 C0,456.209306 13.8236124,428.723339 41.4712519,409.952154 C69.1188914,391.180968 111.035652,381.795516 167.22279,381.795516 L228.091885,381.795516 C223.186659,353.191804 200.221625,338.890162 159.196096,338.890162 C142.696698,338.890162 125.974586,341.459989 109.029259,346.599718 C92.0839315,351.739447 77.5914347,358.778537 65.5513336,367.717197 L17.3911701,267.828171 C38.3498646,254.867114 63.6559937,244.699541 93.3103167,237.325147 C122.96464,229.950752 152.507037,226.26361 181.938395,226.26361 C241.095044,226.26361 287.383553,238.496105 320.805073,262.961432 L320.805073,144 L470.921055,144 L470.921055,303.440701 C496.31819,281.577148 526.852816,269.665633 562.525706,267.705885 C560.87858,259.827771 560,251.58786 560,242.8254 C560,180.534422 612.834094,128 721,128 L721,406.195443 C721,406.195443 721,406.195443 721,406.195443 Z M180.733353,515.604585 C191.439499,515.604585 201.030277,512.668129 209.505976,506.795129 C217.981674,500.922129 224.226832,492.112762 228.241637,480.366762 L228.241637,454.616046 L190.770314,454.616046 C159.990145,454.616046 144.600292,465.006582 144.600292,485.787966 C144.600292,494.371581 147.834391,501.486839 154.302688,507.133954 C160.770984,512.781069 169.581118,515.604585 180.733353,515.604585 Z M320.805073,599.674262 L379.930179,599.674262 L379.930179,402.577796 C379.930179,342.688774 362.985105,298.33134 329.09445,269.504162 C326.42536,267.23385 323.662234,265.05294 320.805073,262.961432 L320.805073,599.674262 Z M721,406.195443 L721,554 C721.32572,552.583416 721.659053,551.169592 722,549.758531 L722,430.859838 C722,422.300852 721.666667,414.079388 721,406.195443 Z M562.525707,267.705887 C572.587751,315.832079 611.330432,350.456771 653.669586,408.226729 C686.516219,453.044548 708.95969,501.635639 721,554 L721,406.195443 C717.405741,363.690058 704.12244,330.995327 681.149854,308.110512 C653.916288,280.980996 617.937522,267.416442 573.212477,267.416442 C569.600405,267.416442 566.038148,267.512923 562.525706,267.705885 Z M722,554.032212 C721.128688,554.010737 720.252145,554 719.37037,554 C696.70359,554 676.975393,562.185103 660.185185,578.555556 C643.394978,594.926008 635,614.86408 635,638.37037 C635,638.580515 635.000671,638.790392 635.002013,639 L722,639 L722,554.032212 Z" id="Combined-Shape" fill="#FFFFFF" fill-rule="nonzero"></path>
        </g>
    </g>
</svg>