<?xml version="1.0" encoding="UTF-8"?>
<svg width="808px" height="808px" viewBox="0 0 808 808" version="1.1" xmlns="http://www.w3.org/2000/svg" xmlns:xlink="http://www.w3.org/1999/xlink">
    <!-- Generator: Sketch 55.2 (78181) - https://sketchapp.com -->
    <title>Group 8</title>
    <desc>Created with Sketch.</desc>
    <g id="Page-1" stroke="none" stroke-width="1" fill="none" fill-rule="evenodd">
        <g id="Group-8">
            <circle id="Oval" fill="#C5318A" cx="404" cy="404" r="404"></circle>
            <g id="Group-7" transform="translate(57.000000, 190.000000)" fill="#FFFFFF" fill-rule="nonzero">
                <g id="Group-3" transform="translate(496.000000, 0.000000)">
                    <g id="Group">
                        <path d="M92.5,242.038462 C92.5,80.6794872 92.5,0 92.5,0 C154.645008,0 185,29.8482412 185,65.2398196 C185,100.631398 159.490892,121.019231 131.183623,159.215132 C112.31211,184.679067 99.4175694,212.286843 92.5,242.038462 Z M92.5,242.038462 C85.5824306,212.286843 72.6878896,184.679067 53.8163771,159.215132 C25.5091084,121.019231 1.70530257e-13,100.631398 1.70530257e-13,65.2398196 C1.70530257e-13,29.8482412 30.3549917,0 92.5,0 C92.5,0 92.5,80.6794872 92.5,242.038462 Z" id="Combined-Shape"></path>
                        <path d="M91.5724932,250.961538 C105.627216,250.961538 117.379695,255.633714 126.830285,264.978205 C136.280874,274.322696 141.006098,285.703637 141.006098,299.121368 C141.006098,312.539098 136.159714,324.039838 126.466802,333.623932 C116.77389,343.208025 105.26373,348 91.9359756,348 C78.6082215,348 67.0980611,343.208025 57.4051491,333.623932 C47.712237,324.039838 42.8658537,312.539098 42.8658537,299.121368 C42.8658537,285.703637 47.712237,274.322696 57.4051491,264.978205 C67.0980611,255.633714 78.4870619,250.961538 91.5724932,250.961538 Z" id="Path"></path>
                    </g>
                </g>
                <g id="Group-6" transform="translate(0.000000, 52.000000)">
                    <path d="M107.862535,71.9686275 C145.931856,71.9686275 175.01215,80.4635593 195.104292,97.4536778 C215.196433,114.443796 225.242353,140.587114 225.242353,175.884414 L225.242353,292.048829 L141.966131,292.048829 L141.966131,263.600401 C131.65569,285.200242 111.167301,296 80.500348,296 C63.3162797,296 48.7100408,293.036652 36.681193,287.109866 C24.6523453,281.183081 15.5317074,273.149114 9.3190058,263.007726 C3.1063042,252.866337 0,241.473909 0,228.8301 C0,207.493672 8.19535577,191.294035 24.5863132,180.230702 C40.9772706,169.167369 65.8277042,163.635785 99.1383596,163.635785 L135.224722,163.635785 C132.316649,146.777373 118.701784,138.348293 94.3797183,138.348293 C84.5980179,138.348293 74.6842811,139.862894 64.6382104,142.89214 C54.5921398,145.921386 46.0002345,150.070073 38.862237,155.338327 L10.3103894,96.4658851 C22.7357926,88.8269171 37.738581,82.8343683 55.3192046,78.4880589 C72.8998283,74.1417495 90.4140967,71.9686275 107.862535,71.9686275 Z M107.068086,242.968419 C113.444209,242.968419 119.156067,241.248818 124.203831,237.809565 C129.251595,234.370311 132.970945,229.211508 135.361991,222.333001 L135.361991,207.253273 L113.045672,207.253273 C94.7143178,207.253273 85.5487783,213.338015 85.5487783,225.507681 C85.5487783,230.534282 87.4748699,234.701008 91.327111,238.007982 C95.179352,241.314957 100.426291,242.968419 107.068086,242.968419 Z" id="Combined-Shape"></path>
                    <path d="M406.839797,72.9322974 C433.641064,72.9322974 455.201165,80.9481995 471.520748,96.9802442 C487.840331,113.012289 496,137.191403 496,169.518313 L496,292.517647 L406.043724,292.517647 L406.043724,184.89323 C406.043724,160.188112 397.154329,147.835738 379.375271,147.835738 C369.291626,147.835738 361.131957,151.318056 354.896019,158.282797 C348.66008,165.247538 345.542158,176.220125 345.542158,191.200888 L345.542158,292.517647 L255.585882,292.517647 L255.585882,0 L345.542158,0 L345.542158,94.2206437 C362.25978,80.0283419 382.692122,72.9322974 406.839797,72.9322974 Z" id="Path"></path>
                </g>
            </g>
        </g>
    </g>
</svg>